<mxfile host="app.diagrams.net" modified="2024-03-16T08:03:18.520Z" agent="Mozilla/5.0 (Windows NT 10.0; Win64; x64; rv:123.0) Gecko/20100101 Firefox/123.0" etag="GflS7mudY_8tl6AWWBQI" version="24.0.7" type="device">
  <diagram name="Page-1" id="OmYAtfPZ9E8zcKW099jQ">
    <mxGraphModel dx="1050" dy="558" grid="1" gridSize="10" guides="1" tooltips="1" connect="1" arrows="1" fold="1" page="1" pageScale="1" pageWidth="850" pageHeight="1100" math="0" shadow="0">
      <root>
        <mxCell id="0" />
        <mxCell id="1" parent="0" />
        <mxCell id="BfNrvy43dxKkCNtwloob-3" value="" style="edgeStyle=orthogonalEdgeStyle;rounded=0;orthogonalLoop=1;jettySize=auto;html=1;" edge="1" parent="1" source="BfNrvy43dxKkCNtwloob-1" target="BfNrvy43dxKkCNtwloob-2">
          <mxGeometry relative="1" as="geometry" />
        </mxCell>
        <mxCell id="BfNrvy43dxKkCNtwloob-1" value="Start" style="rounded=0;whiteSpace=wrap;html=1;" vertex="1" parent="1">
          <mxGeometry x="365" y="30" width="120" height="60" as="geometry" />
        </mxCell>
        <mxCell id="BfNrvy43dxKkCNtwloob-5" value="" style="edgeStyle=orthogonalEdgeStyle;rounded=0;orthogonalLoop=1;jettySize=auto;html=1;" edge="1" parent="1" source="BfNrvy43dxKkCNtwloob-2" target="BfNrvy43dxKkCNtwloob-4">
          <mxGeometry relative="1" as="geometry" />
        </mxCell>
        <mxCell id="BfNrvy43dxKkCNtwloob-2" value="Chosen_word = Randomly pulled word from database" style="rounded=0;whiteSpace=wrap;html=1;" vertex="1" parent="1">
          <mxGeometry x="365" y="170" width="120" height="60" as="geometry" />
        </mxCell>
        <mxCell id="BfNrvy43dxKkCNtwloob-7" value="" style="edgeStyle=orthogonalEdgeStyle;rounded=0;orthogonalLoop=1;jettySize=auto;html=1;entryX=0.5;entryY=0;entryDx=0;entryDy=0;" edge="1" parent="1" source="BfNrvy43dxKkCNtwloob-4" target="BfNrvy43dxKkCNtwloob-8">
          <mxGeometry relative="1" as="geometry">
            <mxPoint x="425.5238095238094" y="430.0220673635307" as="targetPoint" />
          </mxGeometry>
        </mxCell>
        <mxCell id="BfNrvy43dxKkCNtwloob-4" value="Chosen_letter = Players choice from a to z" style="whiteSpace=wrap;html=1;rounded=0;" vertex="1" parent="1">
          <mxGeometry x="365" y="310" width="120" height="60" as="geometry" />
        </mxCell>
        <mxCell id="BfNrvy43dxKkCNtwloob-10" value="" style="edgeStyle=orthogonalEdgeStyle;rounded=0;orthogonalLoop=1;jettySize=auto;html=1;" edge="1" parent="1" source="BfNrvy43dxKkCNtwloob-8" target="BfNrvy43dxKkCNtwloob-9">
          <mxGeometry relative="1" as="geometry" />
        </mxCell>
        <mxCell id="BfNrvy43dxKkCNtwloob-32" value="&lt;font style=&quot;font-size: 20px;&quot;&gt;Yes&lt;/font&gt;" style="edgeLabel;html=1;align=center;verticalAlign=middle;resizable=0;points=[];" vertex="1" connectable="0" parent="BfNrvy43dxKkCNtwloob-10">
          <mxGeometry x="-0.1862" y="-2" relative="1" as="geometry">
            <mxPoint x="-2" y="2" as="offset" />
          </mxGeometry>
        </mxCell>
        <mxCell id="BfNrvy43dxKkCNtwloob-12" value="" style="edgeStyle=orthogonalEdgeStyle;rounded=0;orthogonalLoop=1;jettySize=auto;html=1;" edge="1" parent="1" source="BfNrvy43dxKkCNtwloob-8" target="BfNrvy43dxKkCNtwloob-11">
          <mxGeometry relative="1" as="geometry" />
        </mxCell>
        <mxCell id="BfNrvy43dxKkCNtwloob-33" value="&lt;font style=&quot;font-size: 20px;&quot;&gt;No&lt;/font&gt;" style="edgeLabel;html=1;align=center;verticalAlign=middle;resizable=0;points=[];" vertex="1" connectable="0" parent="BfNrvy43dxKkCNtwloob-12">
          <mxGeometry x="-0.131" y="-1" relative="1" as="geometry">
            <mxPoint y="-1" as="offset" />
          </mxGeometry>
        </mxCell>
        <mxCell id="BfNrvy43dxKkCNtwloob-8" value="Chosen_letter in Chosen_word?" style="rhombus;whiteSpace=wrap;html=1;" vertex="1" parent="1">
          <mxGeometry x="372.5" y="430" width="105" height="110" as="geometry" />
        </mxCell>
        <mxCell id="BfNrvy43dxKkCNtwloob-14" value="" style="edgeStyle=orthogonalEdgeStyle;rounded=0;orthogonalLoop=1;jettySize=auto;html=1;" edge="1" parent="1" source="BfNrvy43dxKkCNtwloob-9" target="BfNrvy43dxKkCNtwloob-13">
          <mxGeometry relative="1" as="geometry" />
        </mxCell>
        <mxCell id="BfNrvy43dxKkCNtwloob-9" value="Unmask the all the same letters" style="whiteSpace=wrap;html=1;" vertex="1" parent="1">
          <mxGeometry x="180" y="455" width="120" height="60" as="geometry" />
        </mxCell>
        <mxCell id="BfNrvy43dxKkCNtwloob-16" value="" style="edgeStyle=orthogonalEdgeStyle;rounded=0;orthogonalLoop=1;jettySize=auto;html=1;" edge="1" parent="1" source="BfNrvy43dxKkCNtwloob-11">
          <mxGeometry relative="1" as="geometry">
            <mxPoint x="610" y="560" as="targetPoint" />
          </mxGeometry>
        </mxCell>
        <mxCell id="BfNrvy43dxKkCNtwloob-11" value="&lt;div&gt;Hangman is drawn&lt;/div&gt;" style="whiteSpace=wrap;html=1;" vertex="1" parent="1">
          <mxGeometry x="550" y="455" width="120" height="60" as="geometry" />
        </mxCell>
        <mxCell id="BfNrvy43dxKkCNtwloob-19" value="" style="edgeStyle=orthogonalEdgeStyle;rounded=0;orthogonalLoop=1;jettySize=auto;html=1;" edge="1" parent="1" source="BfNrvy43dxKkCNtwloob-13" target="BfNrvy43dxKkCNtwloob-18">
          <mxGeometry relative="1" as="geometry" />
        </mxCell>
        <mxCell id="BfNrvy43dxKkCNtwloob-35" value="&lt;font style=&quot;font-size: 20px;&quot;&gt;Yes&lt;/font&gt;" style="edgeLabel;html=1;align=center;verticalAlign=middle;resizable=0;points=[];" vertex="1" connectable="0" parent="BfNrvy43dxKkCNtwloob-19">
          <mxGeometry x="-0.2889" y="1" relative="1" as="geometry">
            <mxPoint x="-1" y="5" as="offset" />
          </mxGeometry>
        </mxCell>
        <mxCell id="BfNrvy43dxKkCNtwloob-27" value="" style="edgeStyle=orthogonalEdgeStyle;rounded=0;orthogonalLoop=1;jettySize=auto;html=1;entryX=0;entryY=0.5;entryDx=0;entryDy=0;" edge="1" parent="1" source="BfNrvy43dxKkCNtwloob-13" target="BfNrvy43dxKkCNtwloob-4">
          <mxGeometry relative="1" as="geometry">
            <mxPoint x="40" y="622.5" as="targetPoint" />
            <Array as="points">
              <mxPoint x="160" y="623" />
              <mxPoint x="160" y="340" />
            </Array>
          </mxGeometry>
        </mxCell>
        <mxCell id="BfNrvy43dxKkCNtwloob-31" value="&lt;font style=&quot;font-size: 20px;&quot;&gt;No&lt;/font&gt;" style="edgeLabel;html=1;align=center;verticalAlign=middle;resizable=0;points=[];" vertex="1" connectable="0" parent="BfNrvy43dxKkCNtwloob-27">
          <mxGeometry x="-0.3163" y="1" relative="1" as="geometry">
            <mxPoint y="16" as="offset" />
          </mxGeometry>
        </mxCell>
        <mxCell id="BfNrvy43dxKkCNtwloob-13" value="Chosen_word is unmasked completely?" style="rhombus;whiteSpace=wrap;html=1;" vertex="1" parent="1">
          <mxGeometry x="180" y="560" width="120" height="125" as="geometry" />
        </mxCell>
        <mxCell id="BfNrvy43dxKkCNtwloob-21" value="" style="edgeStyle=orthogonalEdgeStyle;rounded=0;orthogonalLoop=1;jettySize=auto;html=1;" edge="1" parent="1" source="BfNrvy43dxKkCNtwloob-17" target="BfNrvy43dxKkCNtwloob-20">
          <mxGeometry relative="1" as="geometry" />
        </mxCell>
        <mxCell id="BfNrvy43dxKkCNtwloob-37" value="&lt;font style=&quot;font-size: 20px;&quot;&gt;Yes&lt;/font&gt;" style="edgeLabel;html=1;align=center;verticalAlign=middle;resizable=0;points=[];" vertex="1" connectable="0" parent="BfNrvy43dxKkCNtwloob-21">
          <mxGeometry x="-0.2711" y="1" relative="1" as="geometry">
            <mxPoint x="-1" as="offset" />
          </mxGeometry>
        </mxCell>
        <mxCell id="BfNrvy43dxKkCNtwloob-29" value="" style="edgeStyle=orthogonalEdgeStyle;rounded=0;orthogonalLoop=1;jettySize=auto;html=1;entryX=1;entryY=0.5;entryDx=0;entryDy=0;" edge="1" parent="1" source="BfNrvy43dxKkCNtwloob-17" target="BfNrvy43dxKkCNtwloob-4">
          <mxGeometry relative="1" as="geometry">
            <mxPoint x="810" y="622.5" as="targetPoint" />
            <Array as="points">
              <mxPoint x="700" y="623" />
              <mxPoint x="700" y="340" />
            </Array>
          </mxGeometry>
        </mxCell>
        <mxCell id="BfNrvy43dxKkCNtwloob-30" value="&lt;font style=&quot;font-size: 20px;&quot;&gt;No&lt;/font&gt;" style="edgeLabel;html=1;align=center;verticalAlign=middle;resizable=0;points=[];" vertex="1" connectable="0" parent="BfNrvy43dxKkCNtwloob-29">
          <mxGeometry x="-0.2701" y="-3" relative="1" as="geometry">
            <mxPoint y="26" as="offset" />
          </mxGeometry>
        </mxCell>
        <mxCell id="BfNrvy43dxKkCNtwloob-17" value="Are lives 0?" style="rhombus;whiteSpace=wrap;html=1;" vertex="1" parent="1">
          <mxGeometry x="550" y="560" width="120" height="125" as="geometry" />
        </mxCell>
        <mxCell id="BfNrvy43dxKkCNtwloob-23" value="" style="edgeStyle=orthogonalEdgeStyle;rounded=0;orthogonalLoop=1;jettySize=auto;html=1;entryX=0.5;entryY=0;entryDx=0;entryDy=0;" edge="1" parent="1" source="BfNrvy43dxKkCNtwloob-18" target="BfNrvy43dxKkCNtwloob-25">
          <mxGeometry relative="1" as="geometry">
            <mxPoint x="440" y="827.5" as="targetPoint" />
          </mxGeometry>
        </mxCell>
        <mxCell id="BfNrvy43dxKkCNtwloob-18" value="Player wins" style="whiteSpace=wrap;html=1;" vertex="1" parent="1">
          <mxGeometry x="180" y="797.5" width="120" height="60" as="geometry" />
        </mxCell>
        <mxCell id="BfNrvy43dxKkCNtwloob-24" value="" style="edgeStyle=orthogonalEdgeStyle;rounded=0;orthogonalLoop=1;jettySize=auto;html=1;entryX=0.5;entryY=0;entryDx=0;entryDy=0;" edge="1" parent="1" source="BfNrvy43dxKkCNtwloob-20" target="BfNrvy43dxKkCNtwloob-25">
          <mxGeometry relative="1" as="geometry">
            <mxPoint x="440" y="827.5" as="targetPoint" />
          </mxGeometry>
        </mxCell>
        <mxCell id="BfNrvy43dxKkCNtwloob-20" value="Player loses" style="whiteSpace=wrap;html=1;" vertex="1" parent="1">
          <mxGeometry x="550" y="797.5" width="120" height="60" as="geometry" />
        </mxCell>
        <mxCell id="BfNrvy43dxKkCNtwloob-25" value="Stop" style="rounded=0;whiteSpace=wrap;html=1;" vertex="1" parent="1">
          <mxGeometry x="365" y="930" width="120" height="60" as="geometry" />
        </mxCell>
        <mxCell id="BfNrvy43dxKkCNtwloob-38" value="&lt;div&gt;Database containing all the words for the game&lt;/div&gt;" style="shape=cylinder3;whiteSpace=wrap;html=1;boundedLbl=1;backgroundOutline=1;size=15;" vertex="1" parent="1">
          <mxGeometry x="580" y="30" width="130" height="170" as="geometry" />
        </mxCell>
      </root>
    </mxGraphModel>
  </diagram>
</mxfile>
